# xmcd
#
# Track frame offsets:
#	150
#	12143
#	27064
#	38668
#	47117
#	57054
#	71551
#	83847
#	97019
#	109203
#	122056
#	132823
#	145280
#	156481
#	166039
#	177744
#	187886
#	202299
#	212326
#	220793
#	230817
#	243518
#	255765
#	266735
#	281260
#	293661
#	306336
#	317156
#	327415
#	338557
#
# Disc length: 4659 seconds
#
# Revision: 0
# Processed by: cddbd v1.5PL3 Copyright (c) Steve Scherf et al.
# Submitted via: audiograbber 1.82.01
#
DISCID=b612311e
DTITLE=Tennessee Ernie Ford - The EP Cpllection ...Plus
DYEAR=2001
DGENRE=
TTITLE0=Sixteen Tons
TTITLE1=I Am A Pilgrim
TTITLE2=Somebody Bigger Than You And I
TTITLE3=Oh Little Town Of Bethlehem
TTITLE4=Browns Ferry Blues
TTITLE5=Black Is The Colour Of My True Love's Hair
TTITLE6=Old Blue
TTITLE7=Freight Train Blues
TTITLE8=Beautiful Isle Of Somewhere
TTITLE9=Smokey Mountain Boogie
TTITLE10=Milk 'em In The Morning Blues
TTITLE11=Shotgun Boogie
TTITLE12=Whispering Hope
TTITLE13=Count Your Blessings
TTITLE14=River Of No Return
TTITLE15=You Don't Have To Be A Baby To Cry
TTITLE16=Give Me Your Word
TTITLE17=She's My Baby
TTITLE18=Blackberry Boogie
TTITLE19=Kiss Me Big
TTITLE20=Dark As A Dungeon
TTITLE21=Sunny Side Of Heaven
TTITLE22=Sixteen Tons '65
TTITLE23=Born To Lose
TTITLE24=There'll Be No Teardrops Tonight
TTITLE25=Sweet Dreams
TTITLE26=Country Junction
TTITLE27=Hey Good Looking
TTITLE28=Cool, Cool Kisses
TTITLE29=Fatback, Louisiana
EXTD=See-For-Miles-Records Ltd., UK\nSEECD 733
EXTT0=
EXTT1=
EXTT2=
EXTT3=
EXTT4=
EXTT5=
EXTT6=
EXTT7=
EXTT8=
EXTT9=
EXTT10=
EXTT11=
EXTT12=
EXTT13=
EXTT14=
EXTT15=
EXTT16=
EXTT17=
EXTT18=
EXTT19=
EXTT20=
EXTT21=
EXTT22=
EXTT23=
EXTT24=
EXTT25=
EXTT26=
EXTT27=
EXTT28=
EXTT29=
PLAYORDER=
